<?xml version="1.0" encoding="UTF-8"?>
<svg version="1.1" viewBox="0 0 16 16" xmlns="http://www.w3.org/2000/svg" fill="black">
  <rect x="0" y="0" width="16" height="16" fill="white" />
  <path d="m5.5 3a4.5 1 0 0 1 9 0h1a5.5 2 0 0 0 -11 0" />
  <path d="m5.5 3v10a4.5 1 0 0 0 9 0v-10h1v10a5.5 2 0 0 1 -11 0v-10" />
  <path d="m4.5 3a1.5 1 0 1 1 -1.5 -1a0.5 0.5 0 0 0 0 -1a2.5 2 0 1 0 2.5 2" />
  <path d="m4.5 13a1.5 1 0 1 1 -3 0v-10h-1v10a2.5 2 0 1 0 5 0" />
  <path d="m3.5 1.5v3h-1v-3" />
</svg>
